<?xml version="1.0" encoding="UTF-8" standalone="no"?><!DOCTYPE svg PUBLIC "-//W3C//DTD SVG 1.1//EN" "http://www.w3.org/Graphics/SVG/1.1/DTD/svg11.dtd"><svg width="100%" height="100%" viewBox="0 0 8750 8750" version="1.1" xmlns="http://www.w3.org/2000/svg" xmlns:xlink="http://www.w3.org/1999/xlink" xml:space="preserve" xmlns:serif="http://www.serif.com/" style="fill-rule:evenodd;clip-rule:evenodd;stroke-linejoin:round;stroke-miterlimit:2;"><g><g><path d="M4368.83,5747.92l0.017,-0c-0.017,-0 -0.049,-0.017 -0.082,-0.033c-0.016,-0.016 -0.032,-0.016 -0.048,-0.032l0.016,0.016c-0.016,-0.016 -0.049,-0.016 -0.066,-0.033c-0.032,-0.016 -0.081,-0.032 -0.113,-0.048l0.016,-0c-0,-0 -0.008,-0.001 -0.018,-0.006c-0.003,-0.01 -0.015,-0.011 -0.015,-0.011c-0.004,-0.002 -0.007,-0.004 -0.011,-0.006c-0.207,-0.181 -0.41,-0.369 -0.607,-0.564c0,0.017 -0.017,0.017 -0.017,0.033c-48.42,-31.396 -96.809,-62.842 -145.214,-94.287c-93.278,-60.645 -186.686,-121.078 -279.916,-181.771c-93.929,-61.116 -187.988,-122.021 -281.966,-183.073c-93.912,-61.019 -187.874,-121.956 -281.771,-182.959c-95.849,-62.239 -191.731,-124.43 -287.548,-186.718c-95.622,-62.11 -191.293,-124.154 -286.898,-186.263c-95.655,-62.142 -191.357,-124.219 -287.012,-186.345c-94.613,-61.491 -189.258,-122.965 -283.935,-184.375c-90.088,-58.447 -180.111,-116.976 -270.199,-175.44c-80.094,-52.001 -160.189,-104.003 -240.283,-156.005c-0.358,-0.228 -0.716,-0.537 -1.042,-0.912c-0.211,-0.846 -0.407,-1.676 -0.602,-2.523c-0.017,0 -0.017,0 -0.033,-0.016c-0.114,-0.504 -0.244,-1.025 -0.341,-1.53c-0.277,-1.269 -0.554,-2.539 -0.83,-3.809c-0.31,-1.464 -0.603,-2.929 -0.88,-4.394c-0.211,-1.009 -0.39,-2.034 -0.569,-3.043c-0.016,-0.049 -0.016,-0.098 -0.016,-0.147l-0.017,-0c-0.048,-0.309 -0.113,-0.635 -0.163,-0.944c-2.473,-14.649 -4.133,-29.411 -5.924,-44.157c-0.374,-3.125 -0.732,-6.234 -1.058,-9.359c0,-0.065 0,-0.13 -0.016,-0.195c-0.667,-6.185 -1.221,-12.386 -1.612,-18.603c-0.113,-1.807 -0.211,-3.614 -0.309,-5.42c-0.081,-1.335 -0.146,-2.653 -0.195,-3.988l-0,-0.081c-0,-0.228 -0.016,-0.456 -0.016,-0.684c-0.082,-2.441 -0.13,-4.899 -0.195,-7.34c-0.066,-2.653 -0.131,-5.29 -0.228,-7.927c-0.261,-6.657 -1.058,-13.249 -1.905,-19.84c-0.309,-2.344 -0.586,-4.672 -0.846,-7.015c0.016,-0.017 -0,-0.033 -0,-0.049c-0.196,-1.758 -0.391,-3.516 -0.57,-5.274c-0.179,-1.757 -0.358,-3.532 -0.521,-5.29c-0.325,-3.466 -0.618,-6.933 -0.878,-10.4l-0,-0.179c-0.017,-0.065 -0.017,-0.146 -0.017,-0.211l0,-0.082c-0.016,-0.016 -0.016,-0.048 -0.016,-0.065l-0,-0.033c-0.017,-0.048 -0.017,-0.097 -0.017,-0.146c-0.016,-0.13 -0.016,-0.26 -0.032,-0.407l-0,-0.032c-0,-0.065 -0,-0.114 -0.016,-0.18c-0,-0.309 -0.017,-0.618 -0.065,-0.911c-0.131,-1.758 -0.244,-3.499 -0.391,-5.257l-0,-0.179c-0.016,-0.212 -0.033,-0.423 -0.049,-0.635l0,-0.016c0,-0.017 0,-0.033 -0.016,-0.065l-0,-0.13c-0.13,-2.1 -0.293,-4.183 -0.423,-6.267c-0.033,-0.667 -0.049,-1.334 -0.082,-1.985c-0.048,-1.628 -0.081,-3.239 -0.113,-4.867c-0.147,-6.543 -0.293,-13.102 -0.521,-19.661c-0.505,-14.258 -1.254,-28.5 -1.856,-42.741c-0.602,-14.014 -0.781,-28.011 -1.074,-42.025c-0.212,-9.782 -0.488,-19.564 -0.781,-29.346c-0,-0.162 -0.016,-0.342 -0.016,-0.52c-0,-0.212 -0.017,-0.44 -0.017,-0.668l-0,-0.097c-0.065,-2.23 -0.13,-4.46 -0.179,-6.706c-0.049,-2.263 -0.081,-4.525 -0.13,-6.787c-0.13,-6.869 -0.195,-13.754 -0.179,-20.622c0.033,-11.149 0.114,-22.298 0.342,-33.447c0.179,-9.294 0.456,-18.588 0.667,-27.881c0.033,-0.277 0.033,-0.554 0.033,-0.814c-0,-0.244 0.016,-0.505 0.016,-0.749c0.032,-1.855 0.065,-3.727 0.081,-5.582c0.033,-4.183 0.033,-8.366 -0.016,-12.565c-0.016,-3.793 -0.081,-7.585 -0.13,-11.377c-0.049,-3.19 -0.098,-6.381 -0.13,-9.571c-0,-0.162 -0,-0.309 -0.017,-0.472l0,-0.537c-0.114,-15.527 0.212,-31.038 0.619,-46.549c0.309,-11.508 0.895,-22.998 0.976,-34.506c0.13,-15.787 0.326,-31.591 0.114,-47.395c-0.211,-14.551 -0.455,-29.118 -0.195,-43.685c0.098,-5.111 0.211,-10.238 0.439,-15.349c47.526,30.827 95.02,61.687 142.53,92.546c93.278,60.645 186.686,121.078 279.915,181.771c93.929,61.116 187.988,122.021 281.966,183.073c93.913,61.019 187.875,121.956 281.771,182.959c95.849,62.239 191.732,124.43 287.549,186.718c95.622,62.11 191.292,124.154 286.898,186.264c95.654,62.141 191.357,124.218 287.011,186.344c94.613,61.491 189.258,122.965 283.936,184.375c90.088,58.447 180.11,116.976 270.198,175.439c80.095,52.002 160.189,104.004 240.284,156.006c1.53,0.993 2.75,3.19 3.711,5.974c4.003,7.128 4.996,23.665 5.566,27.311c2.344,16.162 4.329,32.357 5.957,48.584c2.913,27.929 5.274,55.94 7.259,83.952c1.318,-31.234 3.369,-62.549 4.215,-93.783c1.889,-18.343 0.521,-38.2 5.014,-56.185c0.406,-0.032 0.797,-0.065 1.204,-0.114l0.032,0c0,0 0.017,0 0.017,-0.016l0.081,-0c0.489,-0.065 0.977,-0.163 1.449,-0.277l-0,0.016l-0.017,0l0.017,0c0.016,-0.016 0.032,-0.016 0.048,-0.016c0.258,-0.08 0.515,-0.129 0.788,-0.224c-0.005,0.005 -0.006,0.012 -0.006,0.012c0.488,-0.162 0.96,-0.357 1.416,-0.585l-0.016,0.016c0.016,-0.016 0.032,-0.016 0.065,-0.033l-0.017,0.017c0.017,-0.017 0.049,-0.017 0.065,-0.033c0.017,-0.016 0.033,-0.016 0.033,-0.032l0.016,-0c0.033,-0.017 0.049,-0.033 0.066,-0.033c-0.033,0.033 -0.082,0.049 -0.115,0.065c0.435,-0.193 0.887,-0.403 1.322,-0.644c-0.002,0.005 -0.003,0.01 -0.003,0.01c-0,-0 0.001,-0.005 0.003,-0.01c0.004,-0.003 0.008,-0.004 0.013,-0.007c0,-0 0.016,-0.016 0.033,-0.016l-0.017,0.016c0.017,-0.016 0.033,-0.016 0.033,-0.016c0.016,-0.017 0.033,-0.017 0.049,-0.033l-0.016,0.016c0.016,-0.016 0.016,-0.016 0.032,-0.016c-0.016,0 -0.032,0.016 -0.049,0.033c0.017,-0.017 0.033,-0.017 0.049,-0.033c0,-0.016 0.016,-0.016 0.016,-0.016c0.017,-0 0.017,-0 0.017,-0.016l0.016,-0c0.016,-0.017 0.032,-0.017 0.049,-0.017c-0.017,0 -0.017,0 -0.033,0.017c0.016,-0.017 0.016,-0.017 0.033,-0.017c0.13,-0.081 0.26,-0.163 0.374,-0.228c-0.032,0.017 -0.081,0.049 -0.114,0.065c0.131,-0.081 0.277,-0.162 0.391,-0.26c-0.033,0.033 -0.065,0.049 -0.098,0.082c0.049,-0.033 0.082,-0.049 0.114,-0.082c0.033,-0.016 0.049,-0.032 0.081,-0.049l-0.016,0l0.016,-0.016c0.017,0 0.017,0 0.033,-0.016l-0.016,0.016c0.016,-0.016 0.032,-0.032 0.065,-0.049c-0,0 -0,-0.016 0.016,-0.016l0.017,0l-0.017,0l0.017,0c0.016,-0.016 0.032,-0.016 0.032,-0.032c0.016,-0.017 0.049,-0.033 0.065,-0.033c0,-0.016 0,-0.016 0.016,-0.016c0,-0 0.017,-0 0.017,-0.016c0.016,-0 0.016,-0 0.032,-0.017c0.016,-0.016 0.033,-0.016 0.033,-0.033c0.048,-0.016 0.081,-0.048 0.114,-0.065c-0.016,0 -0.033,0.017 -0.049,0.017c0.016,-0.017 0.049,-0.033 0.065,-0.049c0.098,-0.065 0.195,-0.147 0.293,-0.228c0.83,2.702 1.221,5.567 1.155,8.642c2.963,16.146 4.802,32.634 6.072,49.219c1.448,-13.362 3.125,-26.692 5.061,-40.006c0.57,-3.646 1.563,-20.183 5.567,-27.311c0.537,-1.547 1.139,-2.897 1.839,-3.972c0.798,-0.602 1.563,-1.188 2.344,-1.79c0.439,-0.358 0.911,-0.7 1.351,-1.058c0.325,-0.244 0.634,-0.488 0.927,-0.749c0.098,-0.098 0.163,-0.211 0.228,-0.325c79.102,-51.368 158.203,-102.735 237.305,-154.085c90.088,-58.464 180.111,-116.993 270.198,-175.44c94.678,-61.41 189.323,-122.884 283.936,-184.375c95.654,-62.125 191.357,-124.203 287.012,-186.344c95.605,-62.11 191.276,-124.154 286.897,-186.264c95.818,-62.288 191.7,-124.479 287.549,-186.718c93.897,-61.003 187.859,-121.94 281.771,-182.959c93.978,-61.052 188.037,-121.957 281.966,-183.073c93.229,-60.693 186.638,-121.126 279.916,-181.771c47.509,-30.876 94.987,-61.735 142.513,-92.546c0.228,5.111 0.358,10.222 0.455,15.349c0.261,14.567 0.017,29.134 -0.195,43.685c-0.212,15.804 -0.016,31.608 0.114,47.396c0.081,11.507 0.667,22.997 0.976,34.505c0.408,15.511 0.733,31.022 0.619,46.549c0,0.179 0,0.358 -0.016,0.537l-0,0.472c-0.033,3.19 -0.082,6.381 -0.13,9.571c-0.13,8.121 -0.228,16.259 -0.147,24.381c0.017,1.709 0.049,3.418 0.082,5.127c-0,0.049 -0,0.098 -0.017,0.147c0,0.211 0.017,0.406 0.017,0.618c-0,0.26 -0,0.537 0.032,0.814c0.212,9.294 0.488,18.587 0.668,27.881c0.227,11.149 0.309,22.298 0.341,33.447c0.016,6.868 -0.049,13.753 -0.179,20.622l0.016,-0c-0.016,0.993 -0.032,1.986 -0.065,2.978c-0.065,3.532 -0.163,7.064 -0.26,10.596l0.016,-0.016c0,0.097 -0.016,0.195 -0.016,0.293l-0,0.048c-0,0.115 -0.016,0.228 -0.016,0.342c-0,0.179 -0.017,0.358 -0.017,0.521c-0.293,9.782 -0.569,19.564 -0.781,29.346c-0.293,14.013 -0.472,28.011 -1.074,42.025c-0.603,14.241 -1.351,28.483 -1.855,42.741c-0.228,6.559 -0.375,13.118 -0.521,19.661c-0.033,1.628 -0.066,3.239 -0.114,4.866c-0.017,0.668 -0.049,1.335 -0.065,2.003c-0.147,2.083 -0.293,4.182 -0.44,6.266l-0,0.13c-0.016,0.032 -0.016,0.049 -0.016,0.081l-0,0.049c-0.017,0.13 -0.017,0.244 -0.033,0.374l0,0.033c0,0.049 -0.016,0.114 -0.016,0.163l-0,0.179c-0.147,1.757 -0.26,3.499 -0.39,5.257c-0.05,0.293 -0.066,0.602 -0.066,0.911c-0.016,0.033 -0.016,0.049 0,0.082c-0.016,0.032 -0.016,0.065 -0.016,0.097l-0,0.033c-0.016,0.016 -0,0.032 -0,0.032c-0,0.098 -0.016,0.196 -0.016,0.293c-0,0.033 -0.017,0.066 -0.017,0.082c0,0.049 0,0.098 -0.016,0.146l0,0.033c0,0.016 0,0.049 -0.016,0.065l-0,0.081c-0,0.065 -0,0.147 -0.016,0.212l-0,0.179c-0.261,3.467 -0.554,6.934 -0.879,10.4c-0.163,1.758 -0.342,3.532 -0.521,5.29c-0.179,1.758 -0.375,3.516 -0.57,5.274c-0.016,0.032 -0.016,0.048 0,0.065c-0.26,2.343 -0.537,4.687 -0.846,7.015c-0.846,6.592 -1.644,13.183 -1.904,19.84c-0.098,2.67 -0.163,5.339 -0.228,8.008c-0.065,2.409 -0.114,4.834 -0.196,7.243c0,0.244 0,0.488 -0.016,0.732l0,0.033c-0.049,1.334 -0.114,2.669 -0.195,3.987c-0.082,1.612 -0.179,3.24 -0.277,4.851c-0.39,6.396 -0.96,12.793 -1.644,19.173c-0.016,0.065 -0.016,0.13 -0.016,0.195c-0.325,3.125 -0.684,6.25 -1.058,9.375c-1.79,14.746 -3.45,29.509 -5.925,44.157c-0.065,0.358 -0.13,0.716 -0.195,1.074c-0.179,1.01 -0.358,2.035 -0.57,3.044c-0.244,1.367 -0.52,2.734 -0.813,4.101c-0.277,1.368 -0.57,2.735 -0.895,4.102c-0.098,0.521 -0.228,1.025 -0.342,1.546c-0.017,0.017 -0.017,0.017 -0.033,0.033c-0.195,0.83 -0.39,1.66 -0.602,2.49c-0.325,0.374 -0.684,0.684 -1.042,0.911c-80.094,52.003 -160.188,104.005 -240.283,156.006c-90.088,58.464 -180.11,116.993 -270.198,175.44c-94.678,61.409 -189.323,122.884 -283.936,184.375c-95.654,62.126 -191.358,124.202 -287.012,186.344c-95.605,62.11 -191.276,124.154 -286.898,186.263c-95.816,62.289 -191.699,124.48 -287.548,186.719c-93.897,61.003 -187.858,121.94 -281.771,182.959c-93.978,61.052 -188.037,121.957 -281.966,183.073c-93.229,60.693 -186.638,121.126 -279.916,181.771c-48.323,31.396 -96.647,62.793 -144.987,94.14c-0.065,0.065 -0.114,0.114 -0.179,0.18c-0.521,0.293 -1.025,0.602 -1.53,0.911c-0.569,0.342 -1.139,0.684 -1.709,1.042c-0.911,0.52 -1.822,1.041 -2.734,1.578c-0.146,0.098 -0.309,0.179 -0.472,0.277c-0.521,0.293 -1.091,0.618 -1.611,0.977c-0.029,0.018 -0.057,0.038 -0.086,0.057c-1.016,-0.549 -2.088,-1.042 -3.121,-1.587Z" style="fill:#06d6a0;fill-rule:nonzero;"/><path d="M4251.21,5275.38c-0.198,-4.231 -0.6,-8.712 0.033,-12.859c10.538,-8.05 23.03,-13.37 34.684,-19.645c49.263,-23.005 100.22,-42.815 151.595,-60.4c0.772,4.713 0.802,9.953 0.278,14.682c-11.234,6.213 -23.798,10.358 -35.466,15.869c-12.598,5.534 -25.114,11.247 -37.614,17.008c-0.453,-1.793 -0.413,-4.009 -0.495,-5.953c-38.188,16.006 -78.126,29.983 -112.738,53.007c0,0.001 0,0.001 -0,0.001c-0.021,-0 -0.276,-1.678 -0.277,-1.71Z" style="fill:#06d6a0;fill-rule:nonzero;"/><path d="M4363.99,5256.78c-0.199,-0.228 -0.591,-0.498 -0.945,-0.549c-1.328,4.401 -1.885,-15.456 -0.328,-14.585l0.017,0.003c1.68,-6.746 -0.91,-14.418 1.549,-20.97c0.691,0.083 1.46,0.797 2.339,0.501c1.118,-5.396 1.923,14.632 0.453,14.508c-0.045,0.294 -0.118,0.475 -0.233,0.063c-0.179,0.029 -0.378,0.028 -0.59,0.016c-0.184,-0.019 -0.375,-0.044 -0.564,-0.082c0.067,2.124 0.046,4.251 0.028,6.35l0.007,-0.005c1.216,-0.753 1.964,-1.835 2.466,-3.088c0.098,-0.245 0.179,0.065 0.229,0.39c-0.137,5.347 2.482,13.693 -2.442,17.269c-0.678,0.448 -1.357,0.868 -1.986,0.179Z" style="fill:#06d6a0;fill-rule:nonzero;"/><path d="M4409.5,5229.63c-5.225,2.181 -3.573,-7.287 -4.303,-10.158c-4.715,1.479 -3.1,-7.263 -3.943,-10.055c-0.652,0.241 -1.163,0.349 -1.356,0.197c-0.988,-0.765 -1.301,-3.332 -1.421,-5.626c-3.634,2.495 -3.517,-2.253 -3.624,-4.66c-2.068,-17.839 -1.986,-36.198 -1.727,-54.135c0.887,-7.283 -2.053,-17.237 4.151,-22.525c0.445,0.579 0.7,1.247 0.765,1.986c2.335,-0.977 6.625,-4.498 7.553,-2.246c1.367,-0.854 2.872,-1.706 4.085,-1.726c0.147,0.211 0.277,0.423 0.407,0.618c0.404,1.29 0.637,2.673 0.793,4.068c2.973,-1.511 2.863,4.039 2.95,5.405c0.243,2.097 0.455,4.201 0.642,6.31c0.94,-0.18 2.445,-0.873 3.184,-0.044c2.878,10.394 2.055,21.829 2.718,32.617c0.121,14.717 0.969,29.597 -0.603,44.239c-0.258,2.143 -0.931,3.484 -2.466,4.908c-0.531,3.505 0.31,7.576 -1.57,10.733c-1.64,1.737 -3.657,3.125 -5.371,4.802c-0.001,0 -0.003,0.001 -0.004,0.001c-0.092,-0 -0.489,-2.366 -0.86,-4.709Z" style="fill:#06d6a0;fill-rule:nonzero;"/><path d="M4360.51,5219.61c-1.392,-22.38 -2.366,-45.021 -0.537,-67.383c0.163,-1.351 0.293,-2.213 1.221,-3.109c5.094,-4.947 10.823,-9.326 16.243,-13.899c10.815,-9.163 21.472,-18.558 32.799,-27.078c0.39,-2.618 -0.319,-6.427 1.202,-8.908c12.761,-8.757 25.684,-17.416 39.795,-23.877c2.057,-0.816 4.123,-2.005 6.348,-2.181c1.497,0.179 1.692,9.277 1.71,9.456c1.258,22.352 2.63,45.089 0.536,67.383c-0.326,2.213 -0.912,3.076 -2.572,4.395c-15.06,11.592 -31.156,21.785 -46.271,33.29c-0.099,9.007 -0.5,17.295 -1.645,17.296c-5.2,2.385 -10.229,6.976 -16.065,7.551c-0.917,-1.064 -0.752,-2.607 -1.032,-3.601c-10.896,5.754 -19.69,13.558 -30.057,19.982c-0.935,0.001 -1.627,-8.826 -1.675,-9.317Z" style="fill:#06d6a0;fill-rule:nonzero;"/><path d="M4348.61,5291.97c-4.366,-22.658 -2.967,-46.778 -2.664,-69.895c0.114,-2.604 -0.049,-6.168 0.846,-8.708c2.986,-2.749 7.909,-3.474 11.663,-5.262c0.453,-9.956 -0.772,-20.774 4.776,-29.585c11.384,-19.328 28.986,-34.017 45.428,-48.893c4.009,23.974 3.139,49.338 2.375,73.731c-0.065,0.912 0.016,4.541 -0.993,5.42c-6.356,5.57 -12.89,11.241 -19.158,17.201c-0.209,16.452 1.917,33.737 -1.35,49.792c-13.132,6.059 -27.398,10.109 -40.685,15.859c-0.071,0.217 -0.143,0.345 -0.214,0.345c-0.007,-0 -0.015,-0.002 -0.024,-0.005Z" style="fill:#06d6a0;fill-rule:nonzero;"/><path d="M4360.08,5201.62c-1.513,-21.419 -1.904,-43.001 -0.83,-64.469c0.13,-1.611 0.082,-3.939 0.993,-5.42c1.058,-1.383 3.304,-2.213 4.639,-3.353c0.081,-0.179 0.179,-0.342 0.277,-0.504c-0.017,-0.016 -0.033,-0.049 -0.05,-0.082c0.033,0.017 0.066,0.033 0.098,0.033c5.566,-4.58 11.318,-8.959 17.198,-13.184l0.006,0c0,-0.002 0.001,-0.003 0.001,-0.005c0.038,-0.027 0.077,-0.054 0.115,-0.081c0.002,-0.002 0.005,-0.004 0.007,-0.006c0.004,-0.002 0.006,-0.004 0.01,-0.006c-0.007,0.005 -0.013,0.011 -0.019,0.017c0.008,-0.008 0.016,-0.015 0.024,-0.022c0.001,-0 0.002,-0 0.003,-0.001c0.002,-0.002 0.003,-0.003 0.005,-0.004c0.006,-0.004 0.011,-0.005 0.017,-0.005l-0.01,-0c0.02,-0.013 0.039,-0.023 0.059,-0.033l-0,-0.01c0.003,-0.002 0.004,-0.002 0.008,-0.005c0.002,-0 0.005,-0.002 0.008,-0.002c0.005,-0.005 0.01,-0.01 0.015,-0.014c0.009,-0.007 0.016,-0.012 0.025,-0.018c0.005,-0.001 0.008,-0.002 0.008,-0.006l0.001,-0.001l-0,0.007l0.023,-0.023c0.007,-0.005 0.012,-0.009 0.019,-0.014c0.043,-0.017 0.074,-0.046 0.104,-0.061c-0.037,0.013 -0.065,0.035 -0.091,0.052c12.662,-9.077 25.906,-17.439 39.137,-25.524c2.051,-0.993 4.753,-3.336 4.786,0.814c2.604,20.72 2.181,41.765 1.985,62.614c-0.097,8.073 1.449,14.356 -7.161,18.49c-0.114,4.004 -0.423,7.991 -1.14,11.897c-0.602,3.207 -5.713,5.697 -8.089,7.406c-7.08,4.818 -14.046,10.091 -21.435,14.307c-1.676,-3.532 -1.172,-7.943 -1.742,-11.801c-9.391,5.697 -18.147,12.615 -27.474,18.311c-0.585,0 -1.53,-9.277 -1.53,-9.294Z" style="fill:#06d6a0;fill-rule:nonzero;"/><path d="M4323.93,5223.46c-1.009,-23.128 -3.239,-47.119 0.179,-69.873c7.031,-2.914 14.583,-4.899 21.793,-7.324c0.472,-4.753 -0.146,-10.157 1.97,-14.421c6.126,-6.391 13.94,-10.976 21.681,-15.355c0.389,0.107 0.78,0.204 1.171,0.283c-0.05,0 -0.082,-0.016 -0.131,-0.016c0.098,0.016 0.196,0.032 0.293,0.049c-0.049,-0 -0.081,-0.017 -0.13,-0.017c0.505,0.115 1.026,0.18 1.546,0.228l0.017,0c0.074,0 0.148,0.014 0.21,0.016c0.006,0.001 0.012,0.001 0.018,0.001c-0.006,-0 -0.012,-0.001 -0.018,-0.001c-0.012,-0.001 -0.026,-0.005 -0.048,-0.016c0.066,0.017 0.131,0.017 0.196,0.017l-0.13,-0l0.048,-0l-0.048,-0l0.048,-0c0.033,-0 0.065,-0 0.082,0.016l0.016,-0c0.602,0.049 1.221,0.065 1.839,0.049c-0.016,0 -0.016,0 -0.032,0.016l-0.017,0l0.033,0l-0.016,0c0.125,-0.001 0.252,-0.003 0.38,-0.008c0.593,3.502 0.933,8.308 1.101,10.522c7.454,-1.172 15.494,-3.58 22.933,-2.115c0.26,0.179 0.407,0.52 0.504,0.813c2.849,17.285 2.328,35.189 2.556,52.718c-0.456,8.529 1.188,18.327 -1.905,26.302c-22.965,13.298 -50.097,17.562 -74.593,27.393c-0.7,0 -1.53,-9.261 -1.546,-9.277Z" style="fill:#06d6a0;fill-rule:nonzero;"/><path d="M4375.91,5749.44c-0.521,-0.358 -1.091,-0.684 -1.612,-0.977c-0.162,-0.097 -0.325,-0.178 -0.472,-0.276c-0.911,-0.537 -1.823,-1.058 -2.734,-1.579c-0.57,-0.358 -1.139,-0.7 -1.709,-1.042c-0.505,-0.309 -1.009,-0.618 -1.53,-0.911c-0.065,-0.065 -0.114,-0.114 -0.179,-0.179c-48.34,-31.348 -96.663,-62.744 -144.987,-94.141c-93.278,-60.644 -186.686,-121.077 -279.915,-181.771c-93.929,-61.116 -187.989,-122.021 -281.966,-183.073c-93.913,-61.018 -187.875,-121.956 -281.771,-182.958c-95.85,-62.24 -191.732,-124.431 -287.549,-186.719c-95.622,-62.11 -191.293,-124.154 -286.898,-186.263c-95.654,-62.142 -191.357,-124.219 -287.012,-186.345c-94.612,-61.491 -189.258,-122.965 -283.935,-184.375c-90.088,-58.447 -180.111,-116.976 -270.199,-175.439c-80.094,-52.002 -160.189,-104.004 -240.283,-156.006c-0.358,-0.228 -0.716,-0.537 -1.042,-0.911c-0.211,-0.83 -0.406,-1.661 -0.602,-2.491c-0.016,-0.016 -0.016,-0.016 -0.032,-0.032c-0.114,-0.521 -0.245,-1.026 -0.342,-1.546c-0.326,-1.368 -0.619,-2.735 -0.895,-4.102c-0.293,-1.367 -0.57,-2.734 -0.814,-4.101c-0.212,-1.01 -0.391,-2.035 -0.57,-3.044c-0.065,-0.358 -0.13,-0.716 -0.195,-1.074c-2.474,-14.649 -4.134,-29.411 -5.925,-44.157c-0.374,-3.125 -0.732,-6.25 -1.058,-9.375c0,-0.065 0,-0.13 -0.016,-0.195c-0.683,-6.381 -1.253,-12.777 -1.644,-19.174c-0.097,-1.611 -0.195,-3.238 -0.276,-4.85c-0.082,-1.318 -0.147,-2.653 -0.196,-3.988l0,-0.032c-0.016,-0.244 -0.016,-0.489 -0.016,-0.733c-0.081,-2.408 -0.13,-4.833 -0.195,-7.243c-0.065,-2.669 -0.13,-5.338 -0.228,-8.007c-0.26,-6.657 -1.058,-13.249 -1.905,-19.841c-0.309,-2.327 -0.585,-4.671 -0.846,-7.015c0.016,-0.016 0.016,-0.032 0,-0.065c-0.195,-1.758 -0.391,-3.515 -0.569,-5.273c-0.18,-1.758 -0.359,-3.532 -0.521,-5.29c-0.326,-3.467 -0.619,-6.934 -0.879,-10.4l-0,-0.179c-0.017,-0.065 -0.017,-0.147 -0.017,-0.212l0,-0.081c-0.016,-0.017 -0.016,-0.049 -0.016,-0.065l0,-0.033c-0.016,-0.049 -0.016,-0.098 -0.016,-0.146c-0,-0.017 -0.016,-0.049 -0.016,-0.082c-0,-0.098 -0.017,-0.195 -0.017,-0.293c0,-0 0.017,-0.016 0,-0.033l0,-0.032c0,-0.033 0,-0.065 -0.016,-0.098c0.016,-0.032 0.016,-0.048 0,-0.081c0,-0.309 -0.016,-0.619 -0.065,-0.911c-0.13,-1.758 -0.244,-3.5 -0.391,-5.258l0,-0.179c0,-0.048 -0.016,-0.113 -0.016,-0.162l0,-0.033c-0.016,-0.13 -0.016,-0.244 -0.032,-0.374l-0,-0.049c-0,-0.033 -0,-0.049 -0.017,-0.082l0,-0.13c-0.146,-2.083 -0.293,-4.183 -0.439,-6.266c-0.017,-0.668 -0.049,-1.335 -0.065,-2.002c-0.049,-1.628 -0.082,-3.239 -0.114,-4.866c-0.147,-6.544 -0.293,-13.103 -0.521,-19.662c-0.504,-14.258 -1.253,-28.499 -1.855,-42.741c-0.603,-14.014 -0.782,-28.011 -1.075,-42.024c-0.211,-9.783 -0.488,-19.565 -0.781,-29.346c-0,-0.163 -0.016,-0.342 -0.016,-0.521c-0,-0.114 -0.017,-0.228 -0.017,-0.342l0,-0.049c0,-0.097 -0.016,-0.195 -0.016,-0.293l0.016,0.016c-0.097,-3.531 -0.195,-7.063 -0.26,-10.595c-0.033,-0.993 -0.049,-1.986 -0.065,-2.979l0.016,0c-0.13,-6.868 -0.195,-13.753 -0.179,-20.621c0.033,-11.15 0.114,-22.299 0.342,-33.448c0.179,-9.293 0.456,-18.587 0.667,-27.881c0.033,-0.276 0.033,-0.553 0.033,-0.814c-0,-0.211 0.016,-0.406 0.016,-0.618c-0.016,-0.049 -0.016,-0.097 -0.016,-0.147c0.033,-1.708 0.065,-3.417 0.081,-5.126c0.082,-8.122 -0.016,-16.26 -0.146,-24.382c-0.049,-3.19 -0.098,-6.38 -0.13,-9.57l-0,-0.472c-0.017,-0.179 -0.017,-0.358 -0.017,-0.537c-0.114,-15.528 0.212,-31.039 0.619,-46.55c0.309,-11.507 0.895,-22.998 0.976,-34.505c0.13,-15.788 0.326,-31.592 0.114,-47.396c-0.211,-14.551 -0.456,-29.118 -0.195,-43.685c0.098,-5.126 0.228,-10.237 0.456,-15.348c47.526,30.811 95.003,61.67 142.513,92.546c93.278,60.644 186.686,121.077 279.915,181.771c93.929,61.116 187.988,122.021 281.966,183.072c93.913,61.019 187.874,121.957 281.771,182.959c95.85,62.24 191.732,124.431 287.549,186.719c95.621,62.109 191.292,124.154 286.898,186.263c95.654,62.142 191.357,124.219 287.011,186.344c94.613,61.491 189.258,122.966 283.936,184.375c90.088,58.448 180.111,116.976 270.199,175.44c77.539,50.342 155.094,100.7 232.633,151.042c0.244,0.195 0.504,0.39 0.749,0.586c1.22,1.009 2.458,2.018 3.727,2.946l-0.017,-0l-0.016,-0.017l0.016,0.017c0.066,0.065 0.131,0.114 0.212,0.162c-0.016,-0.016 -0.016,-0.016 -0.032,-0.032c0.016,0.016 0.032,0.032 0.048,0.032l-0.016,0c0,0 0.016,0 0.016,0.016l0.017,0.017c0.016,0.016 0.032,0.016 0.048,0.032l0.017,0.016l0.016,0.001c-0.016,-0.001 -0.016,-0.017 -0.033,-0.017l0.017,0c0.033,0.033 0.049,0.049 0.081,0.066c0.017,0.016 0.017,0.016 0.033,0.032c0.016,0 0.016,0.016 0.016,0.016l0,-0.016l0.033,0.033l-0.017,-0.017l0.017,0.017l0.016,-0l-0,0.016c-0,-0.016 -0.016,-0.016 -0.016,-0.016c-0,-0 0.016,-0 0.016,0.016l-0.016,-0.016c0.016,0.016 0.016,0.016 0.032,0.032l0,-0.016c0.016,0.016 0.033,0.016 0.033,0.032l-0.017,-0.016l-0.016,0c0.016,0 0.016,0.016 0.016,0.016l0.017,0c0.016,0 0.016,0.017 0.032,0.017l-0.016,-0c-0,-0 -0.016,-0 -0.016,-0.017c-0,0.017 0.016,0.017 0.016,0.017c-0,-0 0.016,-0 0.016,0.016l0.017,0.016c0.032,0.016 0.048,0.033 0.048,0.033c0.017,-0 0.033,0.016 0.033,0.016c0.016,0.017 0.016,0.017 0.032,0.033c0.017,0.016 0.033,0.032 0.049,0.032c-0.016,0 -0.032,-0.016 -0.032,-0.032c0.748,0.569 1.497,1.106 2.295,1.627l0.065,0.065c0.016,0 0.016,0.017 0.032,0.017c0.016,0.016 0.016,0.016 0.033,0.016c-0,0.016 -0,0.016 0.016,0.016c0.017,0.016 0.033,0.033 0.049,0.033c0.049,0.033 0.081,0.065 0.114,0.081c0.016,0.016 0.032,0.016 0.049,0.033c0.032,0.016 0.048,0.032 0.065,0.048l0,-0.016c0.488,0.342 0.976,0.668 1.481,0.961c0.082,0.048 0.147,0.097 0.228,0.146c0.667,1.058 1.253,2.36 1.758,3.841c4.003,7.129 4.996,23.666 5.566,27.311c1.937,13.314 3.613,26.644 5.062,40.007c1.27,-16.585 3.109,-33.073 6.071,-49.219c-0.049,-2.978 0.325,-5.811 1.09,-8.431c0.244,0.13 0.472,0.277 0.733,0.407c-0.016,-0.016 -0.033,-0.016 -0.033,-0.032c0.342,0.178 0.7,0.358 1.074,0.52c0.114,0.195 0.293,0.342 0.521,0.44c0.179,0.081 0.358,0.146 0.537,0.211l-0.016,0l0.016,0c0.017,0 0.033,0 0.049,0.017c0.016,-0 0.016,-0 0.033,0.016c-0,-0 -0.017,-0.016 -0.033,-0.016c0.016,-0 0.033,0.016 0.033,0.016l0.016,-0c0.016,-0 0.016,0.016 0.016,0.016l0,-0.016c0.016,0.016 0.033,0.016 0.049,0.016c0.017,0 0.017,0.016 0.033,0.016c-0.016,0 -0.049,-0.016 -0.066,-0.016c0.033,0.016 0.082,0.033 0.115,0.049l-0.017,-0c0.049,-0 0.065,0.016 0.098,0.033l-0,-0.017c0.032,0.017 0.049,0.017 0.081,0.033c0.033,0.016 0.065,0.032 0.098,0.032l-0.033,0l0.049,0l0,0.017c0.863,0.276 1.742,0.553 2.621,0.732c-0.049,0 -0.082,-0.016 -0.13,-0.016c0.097,0.016 0.195,0.032 0.293,0.049c-0.05,-0 -0.082,-0.017 -0.131,-0.017c0.521,0.098 1.026,0.163 1.546,0.212l0.065,-0l-0.016,-0l0.033,-0l-0,0.016l-0.065,0l0.163,0c0.032,0.017 0.065,0.017 0.113,0.017l0.017,-0l-0.065,-0l0.146,-0c0.006,-0 0.012,0 0.017,0l-0.001,-0c0.082,0.016 0.163,0.016 0.245,0.016c4.524,18.001 3.173,37.907 5.029,56.234c0.846,31.233 2.897,62.548 4.215,93.782c1.986,-28.011 4.346,-56.022 7.259,-83.952c1.628,-16.227 3.614,-32.422 5.957,-48.584c0.57,-3.646 1.563,-20.182 5.567,-27.311c0.96,-2.783 2.181,-4.98 3.711,-5.973c80.094,-52.002 160.189,-104.004 240.283,-156.006c90.088,-58.464 180.111,-116.992 270.199,-175.44c94.677,-61.409 189.323,-122.884 283.935,-184.375c95.654,-62.125 191.358,-124.202 287.012,-186.344c95.605,-62.109 191.276,-124.154 286.898,-186.263c95.817,-62.289 191.699,-124.479 287.548,-186.719c93.897,-61.002 187.858,-121.94 281.771,-182.959c93.978,-61.051 188.037,-121.956 281.966,-183.073c93.23,-60.693 186.638,-121.126 279.916,-181.77c47.509,-30.86 95.003,-61.719 142.529,-92.546c0.228,5.111 0.342,10.238 0.44,15.348c0.26,14.567 0.016,29.134 -0.196,43.685c-0.211,15.804 -0.016,31.608 0.114,47.396c0.082,11.507 0.667,22.998 0.977,34.505c0.407,15.511 0.732,31.022 0.618,46.549l-0,0.538c-0.016,0.162 -0.016,0.309 -0.016,0.472c-0.033,3.19 -0.082,6.38 -0.13,9.57c-0.049,3.793 -0.114,7.585 -0.131,11.377c-0.048,4.199 -0.048,8.382 -0.016,12.565c0.016,1.856 0.049,3.727 0.082,5.583c-0,0.244 0.016,0.504 0.016,0.748c-0,0.261 -0,0.537 0.032,0.814c0.212,9.294 0.489,18.588 0.668,27.881c0.227,11.149 0.309,22.298 0.342,33.447c0.016,6.869 -0.049,13.754 -0.18,20.622c-0.048,2.263 -0.081,4.525 -0.13,6.787c-0.049,2.246 -0.114,4.476 -0.179,6.706l0,0.098c0,0.227 -0.016,0.455 -0.016,0.667c0,0.179 -0.016,0.358 -0.016,0.521c-0.293,9.782 -0.57,19.564 -0.781,29.346c-0.293,14.013 -0.473,28.011 -1.075,42.024c-0.602,14.242 -1.351,28.483 -1.855,42.741c-0.228,6.559 -0.375,13.118 -0.521,19.662c-0.033,1.627 -0.065,3.239 -0.114,4.866c-0.033,0.651 -0.049,1.318 -0.081,1.986c-0.131,2.083 -0.293,4.167 -0.424,6.266l0,0.13c-0.016,0.033 -0.016,0.049 -0.016,0.066l0,0.016c-0.016,0.211 -0.032,0.423 -0.049,0.634l0,0.18c-0.146,1.757 -0.26,3.499 -0.39,5.257c-0.049,0.293 -0.065,0.602 -0.065,0.911c-0.017,0.065 -0.017,0.114 -0.017,0.179l0,0.033c-0.016,0.146 -0.016,0.276 -0.032,0.407c-0,0.048 -0,0.097 -0.016,0.146l-0,0.033c-0,0.016 -0,0.049 -0.017,0.065l0,0.081c0,0.065 0,0.147 -0.016,0.212l0,0.179c-0.26,3.467 -0.553,6.933 -0.879,10.4c-0.163,1.758 -0.342,3.532 -0.521,5.29c-0.179,1.758 -0.374,3.515 -0.57,5.273c0,0.016 -0.016,0.033 0,0.049c-0.26,2.344 -0.537,4.671 -0.846,7.015c-0.846,6.592 -1.644,13.184 -1.904,19.84c-0.098,2.637 -0.163,5.274 -0.228,7.927c-0.065,2.441 -0.114,4.899 -0.195,7.34c-0,0.228 -0.017,0.456 -0.017,0.684l0,0.081c-0.048,1.335 -0.114,2.653 -0.195,3.988c-0.097,1.807 -0.195,3.613 -0.309,5.42c-0.391,6.217 -0.944,12.419 -1.611,18.604c-0.017,0.065 -0.017,0.13 -0.017,0.195c-0.325,3.125 -0.683,6.233 -1.058,9.358c-1.79,14.747 -3.45,29.509 -5.924,44.158c-0.049,0.309 -0.114,0.634 -0.163,0.943l-0.016,0c-0,0.049 -0,0.098 -0.017,0.147c-0.179,1.009 -0.358,2.035 -0.569,3.044c-0.277,1.464 -0.57,2.929 -0.879,4.394c-0.277,1.269 -0.554,2.539 -0.83,3.809c-0.098,0.504 -0.228,1.025 -0.342,1.53c-0.016,0.016 -0.016,0.016 -0.033,0.016c-0.195,0.846 -0.39,1.677 -0.602,2.523c-0.325,0.374 -0.683,0.683 -1.041,0.911c-80.095,52.002 -160.189,104.004 -240.284,156.006c-90.088,58.464 -180.11,116.992 -270.198,175.439c-94.678,61.41 -189.323,122.885 -283.936,184.375c-95.654,62.126 -191.357,124.203 -287.011,186.345c-95.606,62.109 -191.277,124.153 -286.898,186.263c-95.817,62.288 -191.7,124.479 -287.549,186.719c-93.896,61.002 -187.858,121.94 -281.771,182.958c-93.978,61.052 -188.037,121.957 -281.966,183.073c-93.229,60.694 -186.637,121.127 -279.915,181.771c-48.305,31.381 -96.59,62.758 -144.911,94.09c-0.025,0.012 -0.051,0.023 -0.076,0.035l0.023,-0l-0.002,0.001c-0.009,0.001 -0.017,0.003 -0.023,0.005c0.001,-0.002 0.002,-0.003 0.002,-0.006c-0.004,0.003 -0.009,0.007 -0.014,0.011c-0.007,0.003 -0.013,0.005 -0.019,0.005c-0.016,0.016 -0.032,0.016 -0.049,0.033c0.006,-0.003 0.011,-0.006 0.017,-0.009c-0.012,0.008 -0.025,0.017 -0.033,0.025c-0,-0.005 0.002,-0.008 0.003,-0.01c0.005,-0.002 0.009,-0.004 0.013,-0.006c0,-0 -0.008,-0 -0.013,0.006c-0.094,0.046 -0.202,0.093 -0.296,0.14l0.032,0c-0.01,0 -0.022,0.001 -0.033,0.006c0,-0.002 0.001,-0.003 0.001,-0.006c-0.016,0.016 -0.033,0.016 -0.049,0.033c0.016,-0.017 0.033,-0.017 0.033,-0.017c-0.033,0.017 -0.065,0.033 -0.082,0.049c0.009,-0.009 0.018,-0.016 0.026,-0.023c0.008,-0.003 0.016,-0.007 0.023,-0.009c-0.007,-0 -0.015,0.003 -0.023,0.009c-0.081,0.031 -0.161,0.079 -0.242,0.122c-0.009,0.002 -0.019,0.006 -0.028,0.015c0.009,-0.005 0.019,-0.01 0.028,-0.015c0.001,0 0.002,0 0.002,-0c-0.011,0.005 -0.022,0.012 -0.033,0.018c0.001,-0.001 0.002,-0.001 0.003,-0.003c-0.001,0.002 -0.002,0.002 -0.003,0.003c-0.01,0.005 -0.019,0.011 -0.028,0.018c-0.072,0.036 -0.145,0.076 -0.218,0.117c-0.027,0.012 -0.051,0.024 -0.076,0.041c-0.022,0.011 -0.036,0.015 -0.048,0.021c0,-0 0.001,-0.001 0.002,-0.002c0.01,-0.005 0.019,-0.009 0.03,-0.019c-0.011,0.005 -0.021,0.012 -0.03,0.019c-0.007,0.004 -0.013,0.007 -0.02,0.014c0.006,-0.006 0.012,-0.009 0.018,-0.012c-0,-0 -0.001,0 -0.002,0.001c-0.005,0.002 -0.01,0.006 -0.016,0.011c0,-0 -0.003,-0 -0.008,0.002c-0.001,0.001 -0.002,0.002 -0.002,0.002c-0.002,0.001 -0.002,0.002 -0.004,0.003c-0,0.002 -0,0.003 -0.001,0.004c-0.003,0.002 -0.006,0.004 -0.009,0.005c-0.003,0 -0.006,0 -0.009,0.002c0,-0.002 0.001,-0.002 0.001,-0.002c-0.001,0 -0.001,0.001 -0.003,0.002c-0.004,0 -0.008,0.002 -0.011,0.005c-0.521,0.278 -1.013,0.626 -1.503,0.951c-0.022,0.009 -0.04,0.019 -0.058,0.033c-0.005,0.004 -0.01,0.008 -0.014,0.013c-0.009,0.003 -0.016,0.005 -0.022,0.005l-0.017,0.016c0,0 -0.004,0 -0.007,0.002c-0.005,0.002 -0.008,0.005 -0.011,0.009c-0.004,0.001 -0.009,0.003 -0.014,0.006c-0,0.001 -0,0.001 -0.001,0.002c-0.003,0.002 -0.007,0.005 -0.011,0.01l-0,0l0.012,-0.012c-0,-0 -0,-0 -0.012,0.012c-0.004,0.001 -0.007,0.003 -0.01,0.003c-0.003,0.001 -0.007,0.001 -0.011,0.001l0.01,-0c-0.003,0.001 -0.007,0.003 -0.01,0.004l0,-0.004c0,0.002 -0.001,0.004 -0.001,0.006c-0.005,0.002 -0.01,0.005 -0.015,0.01l0.008,0c-0.002,0.002 -0.004,0.004 -0.005,0.007c-0.007,0.003 -0.013,0.006 -0.019,0.009c-0,0 -0.009,0 -0.014,0.007c-0.006,0.004 -0.013,0.007 -0.019,0.01c-0.01,0.005 -0.022,0.01 -0.032,0.016c0.01,0 0.022,-0.007 0.032,-0.012l0,0.012l0,-0.012l0,0.012l0,-0.012c0.006,-0.002 0.011,-0.004 0.017,-0.004l0.016,-0c-0.049,0.032 -0.098,0.065 -0.147,0.097l0.065,-0.065l0.011,0c-0.01,0.001 -0.011,0.003 -0.011,0.017c0,-0.009 0.004,-0.013 0.011,-0.017l0.006,0l-0,-0.003c0.005,-0.004 0.01,-0.007 0.016,-0.013l0.016,0l-0.016,0l0.016,0l-0.032,0c-0.017,0.016 -0.049,0.033 -0.065,0.049c0.003,-0 0.006,-0.001 0.009,-0.002c-0.003,0.001 -0.006,0.003 -0.009,0.005l-0,-0.003c-0.01,0.005 -0.019,0.012 -0.028,0.02c-0.06,0.036 -0.118,0.073 -0.168,0.11c-0.021,0.014 -0.038,0.028 -0.056,0.042c-0.294,0.186 -0.576,0.374 -0.871,0.56c0.048,-0.032 0.081,-0.049 0.13,-0.065c-0.052,0.026 -0.099,0.052 -0.146,0.078c-0.07,-0.048 -0.141,-0.095 -0.212,-0.143Z" style="fill:#06d6a0;fill-rule:nonzero;"/><path d="M4496.74,5275.38c0.198,-4.231 0.6,-8.712 -0.032,-12.859c-10.539,-8.05 -23.031,-13.37 -34.684,-19.645c-49.263,-23.005 -100.221,-42.815 -151.596,-60.4c-0.771,4.713 -0.802,9.953 -0.277,14.682c11.233,6.213 23.798,10.358 35.466,15.869c12.597,5.534 25.114,11.247 37.614,17.008c0.453,-1.793 0.412,-4.009 0.494,-5.953c38.188,16.006 78.127,29.983 112.738,53.007c0,0.001 0,0.001 0.001,0.001c0.02,-0 0.276,-1.678 0.276,-1.71Z" style="fill:#06d6a0;fill-rule:nonzero;"/><path d="M4383.96,5256.78c0.199,-0.228 0.591,-0.498 0.945,-0.549c1.328,4.401 1.885,-15.456 0.328,-14.585l-0.017,0.003c-1.68,-6.746 0.91,-14.418 -1.549,-20.97c-0.69,0.083 -1.46,0.797 -2.338,0.501c-1.119,-5.396 -1.924,14.632 -0.454,14.508c0.045,0.294 0.118,0.475 0.233,0.063c0.179,0.029 0.379,0.028 0.59,0.016c0.184,-0.019 0.375,-0.044 0.564,-0.082c-0.067,2.124 -0.046,4.251 -0.028,6.35l-0.007,-0.005c-1.216,-0.753 -1.964,-1.835 -2.466,-3.088c-0.098,-0.245 -0.179,0.065 -0.229,0.39c0.137,5.347 -2.482,13.693 2.442,17.269c0.678,0.448 1.358,0.868 1.986,0.179Z" style="fill:#06d6a0;fill-rule:nonzero;"/><path d="M4338.45,5229.63c5.225,2.181 3.573,-7.287 4.302,-10.158c4.715,1.479 3.101,-7.263 3.943,-10.055c0.652,0.241 1.163,0.349 1.356,0.197c0.989,-0.765 1.302,-3.332 1.421,-5.626c3.634,2.495 3.517,-2.253 3.625,-4.66c2.067,-17.839 1.985,-36.198 1.726,-54.135c-0.887,-7.283 2.053,-17.237 -4.151,-22.525c-0.445,0.579 -0.699,1.247 -0.765,1.986c-2.335,-0.977 -6.624,-4.498 -7.553,-2.246c-1.366,-0.854 -2.872,-1.706 -4.085,-1.726c-0.146,0.211 -0.276,0.423 -0.407,0.618c-0.404,1.29 -0.637,2.673 -0.793,4.068c-2.973,-1.511 -2.862,4.039 -2.95,5.405c-0.243,2.097 -0.455,4.201 -0.642,6.31c-0.939,-0.18 -2.445,-0.873 -3.184,-0.044c-2.878,10.394 -2.055,21.829 -2.718,32.617c-0.121,14.717 -0.969,29.597 0.603,44.239c0.258,2.143 0.931,3.484 2.467,4.908c0.53,3.505 -0.31,7.576 1.569,10.733c1.64,1.737 3.657,3.125 5.371,4.802c0.001,0 0.003,0.001 0.005,0.001c0.091,-0 0.488,-2.366 0.86,-4.709Z" style="fill:#06d6a0;fill-rule:nonzero;"/><path d="M4387.44,5219.61c1.392,-22.38 2.366,-45.021 0.537,-67.383c-0.163,-1.351 -0.293,-2.213 -1.221,-3.109c-5.094,-4.947 -10.823,-9.326 -16.243,-13.899c-10.815,-9.163 -21.472,-18.558 -32.798,-27.078c-0.39,-2.618 0.318,-6.427 -1.203,-8.908c-12.76,-8.757 -25.683,-17.416 -39.795,-23.877c-2.057,-0.816 -4.123,-2.005 -6.347,-2.181c-1.498,0.179 -1.693,9.277 -1.71,9.456c-1.258,22.352 -2.631,45.089 -0.537,67.383c0.326,2.213 0.912,3.076 2.572,4.395c15.06,11.592 31.157,21.785 46.271,33.29c0.099,9.007 0.501,17.295 1.646,17.296c5.199,2.385 10.228,6.976 16.064,7.551c0.917,-1.064 0.752,-2.607 1.032,-3.601c10.896,5.754 19.691,13.558 30.057,19.982c0.935,0.001 1.627,-8.826 1.675,-9.317Z" style="fill:#06d6a0;fill-rule:nonzero;"/><path d="M4399.34,5291.97c4.366,-22.658 2.967,-46.778 2.664,-69.895c-0.114,-2.604 0.049,-6.168 -0.846,-8.708c-2.986,-2.749 -7.909,-3.474 -11.663,-5.262c-0.453,-9.956 0.772,-20.774 -4.776,-29.585c-11.384,-19.328 -28.985,-34.017 -45.428,-48.893c-4.009,23.974 -3.139,49.338 -2.375,73.731c0.065,0.912 -0.016,4.541 0.993,5.42c6.356,5.57 12.89,11.241 19.158,17.201c0.209,16.452 -1.917,33.737 1.35,49.792c13.132,6.059 27.398,10.109 40.685,15.859c0.071,0.217 0.143,0.345 0.214,0.345c0.008,-0 0.015,-0.002 0.024,-0.005Z" style="fill:#06d6a0;fill-rule:nonzero;"/><path d="M4358.87,5192.61c-0.57,3.857 -0.065,8.268 -1.742,11.8c-7.389,-4.216 -14.355,-9.489 -21.435,-14.307c-2.376,-1.709 -7.487,-4.199 -8.089,-7.405c-0.717,-3.907 -1.026,-7.894 -1.14,-11.898c-8.61,-4.134 -7.064,-10.417 -7.161,-18.49c-0.196,-20.849 -0.619,-41.894 1.969,-62.614c0.049,-4.15 2.751,-1.806 4.802,-0.813c10.423,6.368 20.858,12.915 31.004,19.844c0.403,0.31 0.81,0.617 1.222,0.924c0.782,0.586 1.563,1.172 2.344,1.757c0.676,0.5 1.353,1.031 2.03,1.532c-0.002,-0.002 -0.006,-0.002 -0.012,-0.002c0.512,0.388 1.039,0.731 1.58,1.058l-0.001,0c0.004,0.005 0.009,0.007 0.014,0.01c0.001,0.002 0.002,0.004 0.002,0.007c0.009,-0 0.017,0.004 0.026,0.009c0.014,0.007 0.026,0.016 0.039,0.023l-0.016,-0.016c0.391,0.244 0.765,0.456 1.172,0.684c-0.016,-0.017 -0.016,-0.017 -0.033,-0.033c0.138,0.069 0.278,0.137 0.417,0.203c5.772,4.143 11.427,8.455 16.885,12.948c0.032,-0 0.065,-0.016 0.097,-0.033c-0.016,0.033 -0.032,0.065 -0.048,0.082c0.097,0.163 0.195,0.326 0.276,0.504c1.335,1.14 3.581,1.97 4.639,3.353c0.911,1.481 0.863,3.809 0.993,5.42c1.074,21.469 0.667,43.05 -0.83,64.47c-0,0.016 -0.944,9.293 -1.53,9.293c-9.326,-5.697 -18.083,-12.614 -27.474,-18.31Z" style="fill:#06d6a0;fill-rule:nonzero;"/><path d="M4347.88,5205.35c-3.092,-7.976 -1.449,-17.774 -1.904,-26.302c0.228,-17.529 -0.293,-35.433 2.555,-52.718c0.098,-0.294 0.244,-0.635 0.505,-0.814c7.438,-1.465 15.478,0.944 22.932,2.116c0.168,-2.208 0.507,-7.036 1.109,-10.554c0.483,0.028 0.973,0.036 1.463,0.023c-0.016,0 -0.032,0 -0.032,0.016l-0.017,0l0.033,0l-0.016,0c0.548,-0.001 1.128,-0.049 1.676,-0.13l0.033,0l-0.033,0c0.036,0 0.063,-0.008 0.094,-0.013c-0.015,0.012 -0.031,0.013 -0.061,0.013l0.065,0c-0,-0.001 0,-0.001 0,-0.001c0.025,-0.002 0.047,-0.007 0.065,-0.015l-0.033,0c0.489,-0.065 0.977,-0.147 1.465,-0.26l-0.016,-0c0.02,-0.005 0.039,-0.009 0.058,-0.014c-0.018,0.005 -0.03,0.014 -0.042,0.014c0.016,-0 0.033,-0 0.065,-0.017c-0.007,0 -0.014,0.001 -0.02,0.003c0.219,-0.05 0.431,-0.101 0.647,-0.167c7.71,4.374 15.512,8.939 21.606,15.317c2.116,4.265 1.498,9.668 1.97,14.421c7.21,2.425 14.762,4.411 21.794,7.324c3.417,22.754 1.187,46.745 0.178,69.873c-0.016,0.017 -0.846,9.277 -1.546,9.277c-24.495,-9.83 -51.627,-14.095 -74.593,-27.392Z" style="fill:#06d6a0;fill-rule:nonzero;"/><path d="M4372.56,5749.85l-0.246,-0.139l0.009,0c-0.005,0 -0.011,-0.002 -0.016,-0.004c-0.004,-0.003 -0.008,-0.005 -0.012,-0.007c-0.002,-0.002 -0.003,-0.003 -0.005,-0.005c0.002,0.002 0.003,0.003 0.005,0.005c-0.013,-0.009 -0.027,-0.016 -0.037,-0.021l-0.016,-0l-0,-0.017c-0,0.017 0.016,0.017 0.016,0.017l0.016,-0c-0.29,-0.16 -0.584,-0.314 -0.879,-0.466c-0.168,-0.541 0.008,-1.432 -0.016,-1.894c0.456,0.195 0.976,0.325 1.497,0.26c0.016,-0.146 -0.049,-0.439 0.049,-0.537l-0.016,0c0.032,-0.016 0.048,-0.016 0.081,-0.032c-0,-0.212 -0,-0.424 0.016,-0.635c0,-0.017 0.016,-0.375 0.033,-0.375c0.537,0.31 1.335,0.472 1.237,1.205c0.309,0.032 0.635,0.016 0.944,0.065c0.13,0.57 0.049,1.237 0.065,1.839c0.016,0.521 -2.165,0.472 -2.718,0.554c-0,0.072 -0.003,0.136 -0.007,0.187Z" style="fill:#06d6a0;fill-rule:nonzero;"/><path d="M4373.13,5750.18c-0.243,-0.145 -0.489,-0.283 -0.732,-0.414c-0.707,-0.568 -1.324,-0.641 -1.002,-2.911c0.537,0.781 2.165,1.253 2.002,1.546c-0.048,0.862 0.265,1.793 -0.168,1.793c-0.029,0.001 -0.063,-0.005 -0.1,-0.014Z" style="fill:#06d6a0;fill-rule:nonzero;"/><path d="M4375.18,5749.75c-0.027,-0.59 -0.1,-1.266 0,-1.84c0.619,-0.409 1.295,-0.781 1.953,-1.106c-0,0.005 -0.001,0.009 -0.001,0.011c0.098,0.666 0.131,1.412 0.034,2.072c-0.671,0.329 -1.324,0.706 -1.953,1.107l-0,0c-0.003,0 -0.033,-0.244 -0.033,-0.244Z" style="fill:#06d6a0;fill-rule:nonzero;"/><path d="M4373.74,5750.56c-0.456,-0.293 -0.912,-0.569 -1.367,-0.814c-0.033,-0.016 -0.049,-0.032 -0.082,-0.048c-0.016,-0.017 -0.033,-0.017 -0.033,-0.033l-0.016,0c-1.106,-0.619 -2.279,-1.156 -3.401,-1.758l0.016,0.016c-0.033,-0.016 -0.049,-0.032 -0.081,-0.048c-0.017,-0 -0.033,-0.017 -0.049,-0.017l0.016,0c-0.016,0 -0.049,-0.016 -0.065,-0.032c-0.049,-0.017 -0.082,-0.033 -0.098,-0.033l-0.016,-0.016c-0,-0 -0.016,-0 -0.016,-0.016l-0.017,-0c-0.001,-0 -0.002,-0.001 -0.003,-0.001c-0.005,-0.001 -0.013,-0.004 -0.013,-0.016c0,0.012 0.008,0.015 0.013,0.016c-0.018,-0.002 -0.047,-0.016 -0.062,-0.016l0,-0.016c0.017,0.016 0.033,0.016 0.049,0.016c-0.032,-0.016 -0.049,-0.016 -0.081,-0.032c-0.244,-0.228 -0.472,-0.472 -0.7,-0.716c-0.131,-0.651 -0.065,-1.368 -0.065,-2.018c1.139,0.797 2.376,2.425 4.02,2.783c0.016,-0.326 -0.033,-0.749 0.049,-0.993c1.432,0.846 2.734,2.067 4.313,0.683c1.253,-1.171 0.765,0.342 0.814,1.563c-0.023,0.044 -0.049,0.087 -0.074,0.129c-0.219,0.141 -0.435,0.283 -0.659,0.424c0.049,-0.032 0.081,-0.049 0.131,-0.065c-0.056,0.028 -0.106,0.056 -0.158,0.084c-0.015,0.004 -0.036,0.015 -0.05,0.027c-0.003,0.002 -0.006,0.003 -0.009,0.004c-0.003,0.001 -0.006,0.003 -0.009,0.005c-0.007,0.004 -0.014,0.007 -0.021,0.011c-0.005,0 -0.008,0.003 -0.01,0.005c-0.003,0.002 -0.005,0.003 -0.007,0.004c0.002,-0.004 0.003,-0.01 0.003,-0.01c-0.049,0.033 -0.082,0.066 -0.13,0.082c0.016,-0 0.032,-0.016 0.048,-0.016c-0.025,0.015 -0.051,0.03 -0.077,0.045c0.015,-0.012 0.029,-0.014 0.029,-0.029c-0,0.015 -0.014,0.017 -0.029,0.029c-0.002,0.002 -0.004,0.003 -0.006,0.004c-0.008,0.001 -0.012,0.006 -0.017,0.009c-0.002,0.002 -0.004,0.004 -0.007,0.005c-0.002,0 -0.004,0.002 -0.006,0.002c0.002,-0 0.004,-0.002 0.006,-0.002c-0.424,0.249 -0.873,0.462 -1.308,0.718c-0.047,0.027 -0.095,0.055 -0.141,0.083c-0.099,0.009 -0.199,0.014 -0.299,0.014c-0.114,0 -0.228,0 -0.325,-0.016Z" style="fill:#06d6a0;fill-rule:nonzero;"/></g><path d="M8102.39,6126.3c0.309,58.626 -1.416,117.269 -3.874,175.83c-0.033,0.863 -0.065,1.742 -0.114,2.621c-37.126,14.42 -67.074,46.321 -76.123,87.386c-1.302,5.875 -2.279,11.8 -3.174,17.741c-1.693,4.931 -3.483,9.847 -5.241,14.762c-3.825,10.677 -7.112,21.533 -10.303,32.422c-44.514,-75.879 -89.029,-151.758 -133.528,-227.637c-2.507,-4.264 -5.014,-8.545 -7.52,-12.809c-0.684,32.405 -1.823,64.811 -3.174,97.184c-2.913,69.483 -6.477,139.176 -14.013,208.333c-1.547,15.707 -3.662,31.332 -6.364,46.875c-0.049,6.462 -2.002,12.077 -5.892,16.846c-67.399,-114.925 -134.815,-229.834 -202.214,-344.759c-120.247,-205.013 -240.494,-410.042 -360.742,-615.055c-116.65,-198.861 -233.268,-397.722 -349.902,-596.566c-119.89,-204.378 -239.779,-408.773 -359.652,-613.167c-122.933,-209.652 -245.931,-419.255 -368.864,-628.89c-120.41,-205.388 -240.869,-410.726 -361.328,-616.081c-123.324,-210.238 -246.647,-420.492 -369.954,-630.745c-124.61,-212.468 -249.235,-424.952 -373.861,-637.435c-120.394,-205.241 -240.771,-410.482 -361.149,-615.723c-114.356,-194.987 -228.695,-389.974 -343.083,-584.945c-6.054,-10.319 -5.306,-26.335 -5.941,-37.532c-0.895,-19.971 -1.351,-39.942 -1.351,-59.929c-0.309,-58.626 1.416,-117.269 3.874,-175.83c2.914,-69.482 6.478,-139.176 14.014,-208.333c1.546,-15.706 3.662,-31.331 6.364,-46.875c0.048,-6.462 2.002,-12.077 5.892,-16.846c69.905,119.19 139.827,238.379 209.733,357.568c0.684,-32.405 1.823,-64.81 3.173,-97.184c2.914,-69.482 6.478,-139.176 14.014,-208.333c0.846,-8.561 1.856,-17.106 3.044,-25.635c10.384,18.587 25.602,34.261 43.717,45.297c7.21,6.054 15.121,11.409 23.552,16.113c0.146,0.097 0.293,0.179 0.439,0.26c81.136,138.298 162.256,276.595 243.359,414.893c120.345,205.176 240.674,410.368 361.036,615.544c123.047,209.765 246.077,419.547 369.108,629.312c124.056,211.491 248.096,422.998 372.135,634.473c121.436,207.032 242.855,414.063 364.291,621.094c121.582,207.308 243.196,414.616 364.778,621.924c120.638,205.697 241.292,411.409 361.947,617.106c117.562,200.423 235.107,400.846 352.653,601.269c118.62,202.23 237.223,404.476 355.843,606.69c82.373,140.429 164.746,280.859 247.103,421.305c6.054,10.319 5.306,26.319 5.941,37.533c0.895,19.971 1.35,39.941 1.35,59.928Z" style="fill:#212121;fill-rule:nonzero;"/><g><g><path d="M655.158,6379.39c-0.001,-0.017 -0.002,-0.037 -0.003,-0.054c1.158,0.177 2.313,0.361 3.457,0.534c4.753,1.383 9.506,2.767 14.258,4.15c-5.863,-1.716 -11.773,-3.311 -17.712,-4.63Z" style="fill-rule:nonzero;"/><path d="M4371.09,429.199c2.457,58.561 4.183,117.188 3.873,175.814c0.001,19.987 -0.455,39.974 -1.35,59.928c-0.635,11.198 0.113,27.214 -5.941,37.533c-114.388,194.987 -228.727,389.974 -343.083,584.961c-120.378,205.241 -240.755,410.482 -361.149,615.723c-124.626,212.467 -249.251,424.967 -373.861,637.435c-123.307,210.253 -246.63,420.507 -369.954,630.729c-120.459,205.371 -240.918,410.709 -361.328,616.08c-122.933,209.636 -245.931,419.238 -368.864,628.906c-119.873,204.395 -239.762,408.79 -359.652,613.152c-116.634,198.86 -233.252,397.721 -349.902,596.582c-120.248,205.013 -240.495,410.025 -360.742,615.039c-67.399,114.941 -134.815,229.85 -202.214,344.759c-3.89,-4.753 -5.843,-10.384 -5.892,-16.83c-2.702,-15.56 -4.818,-31.185 -6.364,-46.875c-7.536,-69.173 -11.1,-138.867 -14.013,-208.333c-1.351,-32.373 -2.49,-64.779 -3.174,-97.184c-2.507,4.264 -5.013,8.545 -7.52,12.809c-35.628,60.758 -71.256,121.501 -106.884,182.259c-3.777,-12.728 -8.448,-25.081 -14.063,-37.386c-13.672,-30.013 -39.079,-53.825 -70.117,-65.104c-12.045,-4.362 -24.707,-6.771 -37.419,-7.227c-2.458,-58.512 -4.183,-117.089 -3.873,-175.667c-0,-19.987 0.455,-39.958 1.35,-59.928c0.635,-11.214 -0.113,-27.214 5.941,-37.533c82.357,-140.446 164.73,-280.876 247.103,-421.305c118.62,-202.214 237.223,-404.46 355.843,-606.69c117.546,-200.423 235.091,-400.846 352.653,-601.269c120.655,-205.697 241.309,-411.41 361.947,-617.106c121.582,-207.308 243.196,-414.616 364.778,-621.924c121.436,-207.032 242.855,-414.063 364.291,-621.094c124.039,-211.475 248.079,-422.982 372.135,-634.473c123.031,-209.765 246.061,-419.547 369.108,-629.313c120.361,-205.175 240.69,-410.367 361.035,-615.543c75.944,-129.525 151.921,-259.034 227.881,-388.558c29.688,8.626 61.947,9.44 92.822,10.433c3.353,45.133 5.518,90.381 7.422,135.53c1.351,32.373 2.491,64.763 3.174,97.168c44.71,-76.204 89.404,-152.425 134.115,-228.646c20.019,0.521 40.039,1.042 60.058,1.514c11.329,0.293 22.673,0.57 34.017,0.83c3.581,46.875 5.843,93.88 7.813,140.804Z" style="fill:#212121;fill-rule:nonzero;"/></g></g><path d="M8029.87,4646.78c11.311,-163.119 12.353,-326.758 3.157,-490.04c-10.709,-164.583 -31.819,-328.271 -63.102,-490.201c-32.275,-159.603 -74.382,-317.025 -126.14,-471.419c-52.441,-152.165 -114.111,-300.912 -184.765,-445.508c-70.296,-140.886 -148.975,-277.344 -235.677,-408.757c-86.784,-129.183 -181.201,-253.027 -282.813,-370.882c-101.172,-115.462 -209.114,-224.772 -323.242,-327.425c-116.959,-103.5 -240.039,-199.886 -368.603,-288.591c-131.836,-89.502 -268.978,-170.866 -410.645,-243.799c-143.782,-72.64 -291.845,-136.376 -443.489,-190.803c-152.523,-53.353 -308.203,-97.168 -466.179,-131.104c-159.521,-32.894 -320.914,-55.631 -483.301,-68.278c-163.037,-11.231 -326.497,-12.191 -489.648,-2.962c-164.046,10.742 -327.165,31.754 -488.607,62.939c-159.782,32.275 -317.366,74.43 -471.923,126.253c-152.491,52.556 -301.514,114.405 -446.404,185.222c-140.739,70.312 -277.05,148.942 -408.349,235.579c-125.96,84.717 -247.07,176.498 -362.224,275.44c-2.441,2.083 -4.882,4.183 -7.324,6.282c-3.059,2.669 -6.103,5.339 -9.147,8.024c-21.126,18.587 -42.073,37.435 -62.777,56.478c-41.585,38.249 -82.308,77.425 -122.151,117.464c-40.056,40.283 -79.183,81.413 -117.416,123.454c-3.157,3.467 -6.298,6.95 -9.44,10.417c-1.79,2.002 -3.58,4.004 -5.371,6.006c-104.313,118.017 -201.367,241.927 -290.95,371.468c-89.551,132.324 -170.98,269.726 -244.206,411.735c-72.428,144.01 -135.954,291.992 -190.56,443.636c-52.213,150.26 -95.345,303.239 -129.232,458.691c-32.845,159.229 -55.778,319.987 -68.945,482.064c-11.426,165.104 -12.581,330.436 -3.516,495.719c11.019,164.812 32.146,328.418 63.265,490.642c32.96,161.458 75.668,320.393 128.06,476.627c52.035,149.414 112.647,295.345 181.82,437.647c70.166,140.234 148.258,275.993 234.31,407.112c86.686,128.858 180.566,252.393 281.64,370.313c102.165,116.52 210.84,226.807 325.88,330.648c117.529,103.743 240.869,200.293 369.758,289.534c132.341,89.518 269.694,170.915 411.654,244.206c143.148,71.973 290.202,135.303 440.902,189.681c151.53,52.815 305.843,96.403 462.63,130.501c160.726,33.154 323.145,56.332 486.751,69.206c158.919,10.921 318.181,12.174 477.247,3.808c6.868,-0.813 13.818,-1.22 20.767,-1.204c14.877,-1.009 29.753,-2.067 44.613,-3.206c34.587,-2.621 69.141,-5.811 103.646,-9.473c111.409,-11.8 222.184,-28.499 332.194,-49.626c160.075,-32.389 317.822,-74.593 472.705,-126.383c152.751,-52.718 302.002,-114.6 447.185,-185.547c140.787,-70.394 277.083,-149.072 408.463,-235.758c129.004,-86.849 252.669,-181.202 370.492,-282.748c114.973,-100.944 223.827,-208.447 326.237,-322.135c103.483,-117.025 199.885,-240.023 288.671,-368.571c89.454,-131.82 170.785,-268.88 243.75,-410.498c72.852,-144.255 136.8,-292.79 191.39,-444.89c53.158,-152.213 96.859,-307.519 130.746,-465.136c32.796,-159.066 55.55,-319.938 68.213,-481.853Zm560.4,-434.163c7.373,177.312 2.067,354.508 -12.695,531.299c-14.405,172.542 -41.342,343.473 -77.067,512.809c-69.629,330.062 -181.185,651.807 -328.548,955.176c-144.548,297.526 -322.64,579.313 -532.39,835.221c-198.095,241.716 -422.265,461.801 -668.831,653.939c-253.63,197.64 -529.801,365.511 -821.436,500.83c-259.961,120.622 -532.926,214.893 -812.142,279.981c-138.655,32.308 -279.215,58.398 -420.459,76.611c-83.04,10.71 -166.341,18.978 -249.869,24.691c-11.573,0.797 -23.161,1.497 -34.75,2.197c-7.552,0.667 -15.315,0.977 -24.642,1.514c-10.026,0.569 -20.052,1.123 -30.078,1.66c-21.37,1.139 -42.757,2.05 -64.128,2.783c-42.627,1.481 -85.302,2.327 -127.945,2.523c-5.909,0.016 -11.817,0.032 -17.741,0.032c-77.409,0 -154.818,-2.278 -232.08,-6.868c-171.745,-10.222 -342.465,-29.802 -511.784,-60.352c-333.952,-60.237 -660.824,-161.67 -970.378,-300.667c-328.955,-147.721 -638.493,-336.914 -920.296,-561.833c-278.19,-222.054 -526.367,-481.266 -739.567,-766.064c-196.501,-262.484 -360.645,-549.398 -490.869,-850.196c-130.095,-300.472 -224.382,-617.105 -281.43,-939.485c-56.689,-320.361 -76.204,-646.745 -58.251,-971.566c18.945,-343.083 79.996,-684.619 182.894,-1012.5c45.296,-144.352 97.526,-286.881 158.137,-425.553c62.191,-142.302 131.934,-281.169 208.529,-416.26c75.375,-132.975 159.18,-261.116 248.389,-385.189c86.035,-119.645 179.46,-233.349 277.409,-343.343c1.578,-1.823 3.19,-3.629 4.818,-5.436c2.945,-3.288 5.891,-6.559 8.838,-9.831c0.667,-0.749 1.318,-1.481 1.985,-2.213c0.358,-0.407 0.716,-0.798 1.09,-1.189c34.522,-38.2 69.857,-75.765 105.811,-112.581c41.471,-42.464 83.854,-83.936 127.165,-124.495c36.246,-33.952 73.177,-67.139 110.579,-99.789c5.306,-5.208 10.938,-10.107 16.878,-14.681c7.292,-6.299 14.584,-12.581 21.908,-18.847c134.636,-115.381 277.214,-220.72 425.244,-318.262c231.169,-152.344 478.874,-280.925 735.71,-384.131c311.637,-125.212 637.532,-212.679 969.694,-261.93c127.864,-18.962 256.478,-30.616 385.482,-38.054c121.891,-7.031 244.206,-8.252 366.211,-3.922c279.524,9.928 556.966,47.2 829.183,111.393c262.158,61.833 518.473,150.098 763.753,261.296c230.208,104.345 450.195,229.524 658.577,372.412c235.97,161.8 455.453,348.486 653.076,555.371c226.449,237.06 425.114,500.439 590.658,783.382c174.072,297.542 310.921,616.618 408.138,947.331c97.738,332.519 152.848,676.676 167.22,1022.79Z" style="fill:#212121;fill-rule:nonzero;"/></g></svg>